<svg width="78" height="78" viewBox="0 0 78 78" fill="none" xmlns="http://www.w3.org/2000/svg">
<path d="M30.875 9.75C36.4777 9.75 41.8509 11.9757 45.8126 15.9374C49.7743 19.8991 52 25.2723 52 30.875C52 36.1075 50.0825 40.9175 46.93 44.6225L47.8075 45.5H50.375L66.625 61.75L61.75 66.625L45.5 50.375V47.8075L44.6225 46.93C40.9175 50.0825 36.1075 52 30.875 52C25.2723 52 19.8991 49.7743 15.9374 45.8126C11.9757 41.8509 9.75 36.4777 9.75 30.875C9.75 25.2723 11.9757 19.8991 15.9374 15.9374C19.8991 11.9757 25.2723 9.75 30.875 9.75ZM30.875 16.25C22.75 16.25 16.25 22.75 16.25 30.875C16.25 39 22.75 45.5 30.875 45.5C39 45.5 45.5 39 45.5 30.875C45.5 22.75 39 16.25 30.875 16.25Z" fill="white"/>
</svg>
