<svg width="78" height="78" viewBox="0 0 78 78" fill="none" xmlns="http://www.w3.org/2000/svg">
<path d="M39 26C42.4478 26 45.7544 27.3696 48.1924 29.8076C50.6303 32.2456 52 35.5522 52 39C52 42.4478 50.6303 45.7544 48.1924 48.1924C45.7544 50.6304 42.4478 52 39 52C35.5522 52 32.2455 50.6304 29.8076 48.1924C27.3696 45.7544 26 42.4478 26 39C26 35.5522 27.3696 32.2456 29.8076 29.8076C32.2455 27.3696 35.5522 26 39 26ZM39 32.5C37.2761 32.5 35.6228 33.1848 34.4038 34.4038C33.1848 35.6228 32.5 37.2761 32.5 39C32.5 40.7239 33.1848 42.3772 34.4038 43.5962C35.6228 44.8152 37.2761 45.5 39 45.5C40.7239 45.5 42.3772 44.8152 43.5962 43.5962C44.8151 42.3772 45.5 40.7239 45.5 39C45.5 37.2761 44.8151 35.6228 43.5962 34.4038C42.3772 33.1848 40.7239 32.5 39 32.5ZM32.5 71.5C31.6875 71.5 31.005 70.915 30.875 70.135L29.6725 61.5225C27.625 60.71 25.87 59.605 24.18 58.305L16.0875 61.5875C15.3725 61.8475 14.495 61.5875 14.105 60.8725L7.60497 49.6275C7.18247 48.9125 7.37747 48.035 7.99497 47.5475L14.8525 42.1525L14.625 39L14.8525 35.75L7.99497 30.4525C7.37747 29.965 7.18247 29.0875 7.60497 28.3725L14.105 17.1275C14.495 16.4125 15.3725 16.12 16.0875 16.4125L24.18 19.6625C25.87 18.395 27.625 17.29 29.6725 16.4775L30.875 7.865C31.005 7.085 31.6875 6.5 32.5 6.5H45.5C46.3125 6.5 46.995 7.085 47.125 7.865L48.3275 16.4775C50.375 17.29 52.13 18.395 53.82 19.6625L61.9125 16.4125C62.6275 16.12 63.505 16.4125 63.895 17.1275L70.395 28.3725C70.8175 29.0875 70.6225 29.965 70.005 30.4525L63.1475 35.75L63.375 39L63.1475 42.25L70.005 47.5475C70.6225 48.035 70.8175 48.9125 70.395 49.6275L63.895 60.8725C63.505 61.5875 62.6275 61.88 61.9125 61.5875L53.82 58.3375C52.13 59.605 50.375 60.71 48.3275 61.5225L47.125 70.135C46.995 70.915 46.3125 71.5 45.5 71.5H32.5ZM36.5625 13L35.36 21.4825C31.46 22.295 28.015 24.375 25.5125 27.2675L17.68 23.8875L15.2425 28.1125L22.1 33.15C20.8 36.9525 20.8 41.08 22.1 44.85L15.21 49.92L17.6475 54.145L25.545 50.765C28.0475 53.625 31.46 55.705 35.3275 56.485L36.53 65H41.47L42.6725 56.5175C46.54 55.705 49.9525 53.625 52.455 50.765L60.3525 54.145L62.79 49.92L55.9 44.8825C57.2 41.08 57.2 36.9525 55.9 33.15L62.7575 28.1125L60.32 23.8875L52.4875 27.2675C49.985 24.375 46.54 22.295 42.64 21.515L41.4375 13H36.5625Z" fill="white"/>
</svg>
